<mxfile host="app.diagrams.net" modified="2021-09-23T03:16:52.301Z" agent="5.0 (Windows NT 10.0; Win64; x64) AppleWebKit/537.36 (KHTML, like Gecko) Chrome/93.0.4577.82 Safari/537.36" etag="9JOZVMlZ_Tt610LIAt6z" version="15.2.9" type="github">
  <diagram id="9reER70o6MGOf1uDHaSa" name="Page-1">
    <mxGraphModel dx="2287" dy="669" grid="1" gridSize="10" guides="1" tooltips="1" connect="1" arrows="1" fold="1" page="1" pageScale="1" pageWidth="827" pageHeight="1169" math="0" shadow="0">
      <root>
        <mxCell id="0" />
        <mxCell id="1" parent="0" />
        <mxCell id="59JFHNOHoAPkBTodmzGd-1" value="VPC" style="points=[[0,0],[0.25,0],[0.5,0],[0.75,0],[1,0],[1,0.25],[1,0.5],[1,0.75],[1,1],[0.75,1],[0.5,1],[0.25,1],[0,1],[0,0.75],[0,0.5],[0,0.25]];outlineConnect=0;gradientColor=none;html=1;whiteSpace=wrap;fontSize=12;fontStyle=0;shape=mxgraph.aws4.group;grIcon=mxgraph.aws4.group_vpc;strokeColor=#248814;fillColor=none;verticalAlign=top;align=left;spacingLeft=30;fontColor=#AAB7B8;dashed=0;" vertex="1" parent="1">
          <mxGeometry x="140" y="20" width="990" height="700" as="geometry" />
        </mxCell>
        <mxCell id="59JFHNOHoAPkBTodmzGd-24" style="edgeStyle=orthogonalEdgeStyle;rounded=0;orthogonalLoop=1;jettySize=auto;html=1;" edge="1" parent="1" source="59JFHNOHoAPkBTodmzGd-3" target="59JFHNOHoAPkBTodmzGd-22">
          <mxGeometry relative="1" as="geometry" />
        </mxCell>
        <mxCell id="59JFHNOHoAPkBTodmzGd-3" value="Route 53" style="outlineConnect=0;dashed=0;verticalLabelPosition=bottom;verticalAlign=top;align=center;html=1;shape=mxgraph.aws3.route_53;fillColor=#F58536;gradientColor=none;" vertex="1" parent="1">
          <mxGeometry x="160" y="282.88" width="50" height="67.75" as="geometry" />
        </mxCell>
        <mxCell id="59JFHNOHoAPkBTodmzGd-5" value="Amazon EKS" style="sketch=0;outlineConnect=0;fontColor=#232F3E;gradientColor=none;strokeColor=#ffffff;fillColor=#232F3E;dashed=0;verticalLabelPosition=middle;verticalAlign=bottom;align=center;html=1;whiteSpace=wrap;fontSize=10;fontStyle=1;spacing=3;shape=mxgraph.aws4.productIcon;prIcon=mxgraph.aws4.eks;" vertex="1" parent="1">
          <mxGeometry x="770" y="30" width="80" height="100" as="geometry" />
        </mxCell>
        <mxCell id="59JFHNOHoAPkBTodmzGd-6" value="" style="rounded=0;whiteSpace=wrap;html=1;fillColor=none;gradientColor=none;" vertex="1" parent="1">
          <mxGeometry x="480" y="30" width="370" height="670" as="geometry" />
        </mxCell>
        <mxCell id="59JFHNOHoAPkBTodmzGd-7" value="WEB IDE Namespace" style="sketch=0;outlineConnect=0;gradientColor=none;html=1;whiteSpace=wrap;fontSize=12;fontStyle=0;shape=mxgraph.aws4.group;grIcon=mxgraph.aws4.group_vpc;strokeColor=#B6BABF;fillColor=none;verticalAlign=top;align=left;spacingLeft=30;fontColor=#B6BABF;dashed=0;" vertex="1" parent="1">
          <mxGeometry x="570" y="50" width="150" height="160" as="geometry" />
        </mxCell>
        <mxCell id="59JFHNOHoAPkBTodmzGd-8" value="Zelinium Grid Namespace" style="sketch=0;outlineConnect=0;gradientColor=none;html=1;whiteSpace=wrap;fontSize=12;fontStyle=0;shape=mxgraph.aws4.group;grIcon=mxgraph.aws4.group_vpc;strokeColor=#B6BABF;fillColor=none;verticalAlign=top;align=left;spacingLeft=30;fontColor=#B6BABF;dashed=0;" vertex="1" parent="1">
          <mxGeometry x="570" y="233.88" width="150" height="160" as="geometry" />
        </mxCell>
        <mxCell id="59JFHNOHoAPkBTodmzGd-9" value="Portainer Namespace" style="sketch=0;outlineConnect=0;gradientColor=none;html=1;whiteSpace=wrap;fontSize=12;fontStyle=0;shape=mxgraph.aws4.group;grIcon=mxgraph.aws4.group_vpc;strokeColor=#B6BABF;fillColor=none;verticalAlign=top;align=left;spacingLeft=30;fontColor=#B6BABF;dashed=0;" vertex="1" parent="1">
          <mxGeometry x="570" y="460" width="150" height="160" as="geometry" />
        </mxCell>
        <mxCell id="59JFHNOHoAPkBTodmzGd-10" value="S3 Bucket to Store Logs" style="sketch=0;points=[[0,0,0],[0.25,0,0],[0.5,0,0],[0.75,0,0],[1,0,0],[0,1,0],[0.25,1,0],[0.5,1,0],[0.75,1,0],[1,1,0],[0,0.25,0],[0,0.5,0],[0,0.75,0],[1,0.25,0],[1,0.5,0],[1,0.75,0]];outlineConnect=0;fontColor=#232F3E;gradientColor=#60A337;gradientDirection=north;fillColor=#277116;strokeColor=#ffffff;dashed=0;verticalLabelPosition=bottom;verticalAlign=top;align=center;html=1;fontSize=12;fontStyle=0;aspect=fixed;shape=mxgraph.aws4.resourceIcon;resIcon=mxgraph.aws4.s3;" vertex="1" parent="1">
          <mxGeometry x="963.75" y="132" width="78" height="78" as="geometry" />
        </mxCell>
        <mxCell id="59JFHNOHoAPkBTodmzGd-11" value="" style="sketch=0;html=1;dashed=0;whitespace=wrap;fillColor=#2875E2;strokeColor=#ffffff;points=[[0.005,0.63,0],[0.1,0.2,0],[0.9,0.2,0],[0.5,0,0],[0.995,0.63,0],[0.72,0.99,0],[0.5,1,0],[0.28,0.99,0]];shape=mxgraph.kubernetes.icon;prIcon=pod" vertex="1" parent="1">
          <mxGeometry x="632.5" y="80" width="25" height="29" as="geometry" />
        </mxCell>
        <mxCell id="59JFHNOHoAPkBTodmzGd-12" value="" style="sketch=0;html=1;dashed=0;whitespace=wrap;fillColor=#2875E2;strokeColor=#ffffff;points=[[0.005,0.63,0],[0.1,0.2,0],[0.9,0.2,0],[0.5,0,0],[0.995,0.63,0],[0.72,0.99,0],[0.5,1,0],[0.28,0.99,0]];shape=mxgraph.kubernetes.icon;prIcon=pod" vertex="1" parent="1">
          <mxGeometry x="632.5" y="120" width="25" height="29" as="geometry" />
        </mxCell>
        <mxCell id="59JFHNOHoAPkBTodmzGd-13" value="" style="sketch=0;html=1;dashed=0;whitespace=wrap;fillColor=#2875E2;strokeColor=#ffffff;points=[[0.005,0.63,0],[0.1,0.2,0],[0.9,0.2,0],[0.5,0,0],[0.995,0.63,0],[0.72,0.99,0],[0.5,1,0],[0.28,0.99,0]];shape=mxgraph.kubernetes.icon;prIcon=pod" vertex="1" parent="1">
          <mxGeometry x="632.5" y="160" width="25" height="29" as="geometry" />
        </mxCell>
        <mxCell id="59JFHNOHoAPkBTodmzGd-15" value="" style="sketch=0;html=1;dashed=0;whitespace=wrap;fillColor=#2875E2;strokeColor=#ffffff;points=[[0.005,0.63,0],[0.1,0.2,0],[0.9,0.2,0],[0.5,0,0],[0.995,0.63,0],[0.72,0.99,0],[0.5,1,0],[0.28,0.99,0]];shape=mxgraph.kubernetes.icon;prIcon=pod" vertex="1" parent="1">
          <mxGeometry x="632.5" y="280" width="25" height="29" as="geometry" />
        </mxCell>
        <mxCell id="59JFHNOHoAPkBTodmzGd-16" value="" style="sketch=0;html=1;dashed=0;whitespace=wrap;fillColor=#2875E2;strokeColor=#ffffff;points=[[0.005,0.63,0],[0.1,0.2,0],[0.9,0.2,0],[0.5,0,0],[0.995,0.63,0],[0.72,0.99,0],[0.5,1,0],[0.28,0.99,0]];shape=mxgraph.kubernetes.icon;prIcon=pod" vertex="1" parent="1">
          <mxGeometry x="632.5" y="321.63" width="25" height="29" as="geometry" />
        </mxCell>
        <mxCell id="59JFHNOHoAPkBTodmzGd-17" value="" style="sketch=0;html=1;dashed=0;whitespace=wrap;fillColor=#2875E2;strokeColor=#ffffff;points=[[0.005,0.63,0],[0.1,0.2,0],[0.9,0.2,0],[0.5,0,0],[0.995,0.63,0],[0.72,0.99,0],[0.5,1,0],[0.28,0.99,0]];shape=mxgraph.kubernetes.icon;prIcon=pod" vertex="1" parent="1">
          <mxGeometry x="635" y="355.5" width="25" height="29" as="geometry" />
        </mxCell>
        <mxCell id="59JFHNOHoAPkBTodmzGd-18" value="" style="sketch=0;html=1;dashed=0;whitespace=wrap;fillColor=#2875E2;strokeColor=#ffffff;points=[[0.005,0.63,0],[0.1,0.2,0],[0.9,0.2,0],[0.5,0,0],[0.995,0.63,0],[0.72,0.99,0],[0.5,1,0],[0.28,0.99,0]];shape=mxgraph.kubernetes.icon;prIcon=pod" vertex="1" parent="1">
          <mxGeometry x="635" y="490" width="25" height="29" as="geometry" />
        </mxCell>
        <mxCell id="59JFHNOHoAPkBTodmzGd-19" value="" style="sketch=0;html=1;dashed=0;whitespace=wrap;fillColor=#2875E2;strokeColor=#ffffff;points=[[0.005,0.63,0],[0.1,0.2,0],[0.9,0.2,0],[0.5,0,0],[0.995,0.63,0],[0.72,0.99,0],[0.5,1,0],[0.28,0.99,0]];shape=mxgraph.kubernetes.icon;prIcon=pod" vertex="1" parent="1">
          <mxGeometry x="635" y="530" width="25" height="29" as="geometry" />
        </mxCell>
        <mxCell id="59JFHNOHoAPkBTodmzGd-20" value="" style="sketch=0;html=1;dashed=0;whitespace=wrap;fillColor=#2875E2;strokeColor=#ffffff;points=[[0.005,0.63,0],[0.1,0.2,0],[0.9,0.2,0],[0.5,0,0],[0.995,0.63,0],[0.72,0.99,0],[0.5,1,0],[0.28,0.99,0]];shape=mxgraph.kubernetes.icon;prIcon=pod" vertex="1" parent="1">
          <mxGeometry x="635" y="570" width="25" height="29" as="geometry" />
        </mxCell>
        <mxCell id="59JFHNOHoAPkBTodmzGd-25" style="edgeStyle=orthogonalEdgeStyle;rounded=0;orthogonalLoop=1;jettySize=auto;html=1;entryX=-0.003;entryY=0.428;entryDx=0;entryDy=0;entryPerimeter=0;" edge="1" parent="1" source="59JFHNOHoAPkBTodmzGd-22" target="59JFHNOHoAPkBTodmzGd-6">
          <mxGeometry relative="1" as="geometry" />
        </mxCell>
        <mxCell id="59JFHNOHoAPkBTodmzGd-22" value="Application Load Balancer" style="outlineConnect=0;dashed=0;verticalLabelPosition=bottom;verticalAlign=top;align=center;html=1;shape=mxgraph.aws3.application_load_balancer;fillColor=#F58534;gradientColor=none;" vertex="1" parent="1">
          <mxGeometry x="290" y="285.76" width="60" height="62" as="geometry" />
        </mxCell>
        <mxCell id="59JFHNOHoAPkBTodmzGd-26" value="RDS" style="outlineConnect=0;dashed=0;verticalLabelPosition=bottom;verticalAlign=top;align=center;html=1;shape=mxgraph.aws3.rds;fillColor=#2E73B8;gradientColor=none;" vertex="1" parent="1">
          <mxGeometry x="969.75" y="438" width="72" height="81" as="geometry" />
        </mxCell>
        <mxCell id="59JFHNOHoAPkBTodmzGd-27" value="EFS Storage" style="outlineConnect=0;dashed=0;verticalLabelPosition=bottom;verticalAlign=top;align=center;html=1;shape=mxgraph.aws3.efs;fillColor=#E05243;gradientColor=none;" vertex="1" parent="1">
          <mxGeometry x="965.25" y="270.26" width="76.5" height="93" as="geometry" />
        </mxCell>
        <mxCell id="59JFHNOHoAPkBTodmzGd-28" value="" style="endArrow=classic;html=1;" edge="1" parent="1">
          <mxGeometry width="50" height="50" relative="1" as="geometry">
            <mxPoint x="850" y="323" as="sourcePoint" />
            <mxPoint x="960" y="323" as="targetPoint" />
          </mxGeometry>
        </mxCell>
        <mxCell id="59JFHNOHoAPkBTodmzGd-29" value="Ingress" style="shape=image;html=1;verticalAlign=top;verticalLabelPosition=bottom;labelBackgroundColor=#ffffff;imageAspect=0;aspect=fixed;image=https://cdn1.iconfinder.com/data/icons/hex-ico/128/ingress.png;fillColor=none;gradientColor=none;" vertex="1" parent="1">
          <mxGeometry x="490" y="294.51" width="44.5" height="44.5" as="geometry" />
        </mxCell>
        <mxCell id="59JFHNOHoAPkBTodmzGd-32" value="1234" style="fontStyle=0;labelPosition=right;verticalLabelPosition=middle;align=left;verticalAlign=middle;spacingLeft=2;fillColor=none;gradientColor=none;" vertex="1" parent="1">
          <mxGeometry x="570" y="301.76" width="20" height="28.24" as="geometry" />
        </mxCell>
        <mxCell id="59JFHNOHoAPkBTodmzGd-33" value="1234" style="fontStyle=0;labelPosition=right;verticalLabelPosition=middle;align=left;verticalAlign=middle;spacingLeft=2;fillColor=none;gradientColor=none;" vertex="1" parent="1">
          <mxGeometry x="570" y="120" width="20" height="28.24" as="geometry" />
        </mxCell>
        <mxCell id="59JFHNOHoAPkBTodmzGd-34" value="1234" style="fontStyle=0;labelPosition=right;verticalLabelPosition=middle;align=left;verticalAlign=middle;spacingLeft=2;fillColor=none;gradientColor=none;" vertex="1" parent="1">
          <mxGeometry x="570" y="530" width="20" height="28.24" as="geometry" />
        </mxCell>
        <mxCell id="59JFHNOHoAPkBTodmzGd-35" value="&lt;b&gt;Google &lt;/b&gt;Cloud Platform" style="fillColor=none;strokeColor=default;shadow=0;gradientColor=none;fontSize=14;align=left;spacing=10;fontColor=#717171;9E9E9E;verticalAlign=top;spacingTop=-4;fontStyle=0;spacingLeft=40;html=1;" vertex="1" parent="1">
          <mxGeometry x="-430" y="10" width="530" height="700" as="geometry" />
        </mxCell>
        <mxCell id="59JFHNOHoAPkBTodmzGd-36" value="" style="shape=mxgraph.gcp2.google_cloud_platform;fillColor=#F6F6F6;strokeColor=none;shadow=0;gradientColor=none;" vertex="1" parent="59JFHNOHoAPkBTodmzGd-35">
          <mxGeometry width="23" height="20" relative="1" as="geometry">
            <mxPoint x="20" y="10" as="offset" />
          </mxGeometry>
        </mxCell>
        <mxCell id="59JFHNOHoAPkBTodmzGd-41" value="" style="group;dropTarget=0;" vertex="1" parent="59JFHNOHoAPkBTodmzGd-35">
          <mxGeometry x="421" y="401" width="33" height="33" as="geometry" />
        </mxCell>
        <UserObject label="" lucidchartObjectId="oBf9n_wxus.4" id="59JFHNOHoAPkBTodmzGd-42">
          <mxCell style="html=1;overflow=block;blockSpacing=1;whiteSpace=wrap;shape=image;whiteSpace=wrap;fontSize=13;spacing=3.8;strokeColor=none;strokeOpacity=100;strokeWidth=0;image=https://images.lucid.app/images/387019c9-0cac-4a15-9b4c-4122ca1445f2/content;imageAspect=0;" vertex="1" parent="59JFHNOHoAPkBTodmzGd-41">
            <mxGeometry width="33" height="33" as="geometry" />
          </mxCell>
        </UserObject>
        <UserObject label="" lucidchartObjectId="oBf9FOxRoMCv" id="59JFHNOHoAPkBTodmzGd-43">
          <mxCell style="html=1;overflow=block;blockSpacing=1;whiteSpace=wrap;shape=image;whiteSpace=wrap;fontSize=13;spacing=3.8;strokeColor=none;strokeOpacity=100;strokeWidth=0;image=https://images.lucid.app/images/a7f356a9-e885-4dc7-b51e-767a450974e6/content;imageAspect=0;" vertex="1" parent="59JFHNOHoAPkBTodmzGd-41">
            <mxGeometry x="3" y="2" width="27" height="27" as="geometry" />
          </mxCell>
        </UserObject>
        <mxCell id="59JFHNOHoAPkBTodmzGd-44" value="" style="group;dropTarget=0;" vertex="1" parent="59JFHNOHoAPkBTodmzGd-35">
          <mxGeometry x="365" y="327" width="116" height="116" as="geometry" />
        </mxCell>
        <UserObject label="" lucidchartObjectId="oBf97a~iaGHs" id="59JFHNOHoAPkBTodmzGd-45">
          <mxCell style="html=1;overflow=block;blockSpacing=1;whiteSpace=wrap;shape=image;whiteSpace=wrap;fontSize=13;spacing=3.8;strokeColor=none;strokeOpacity=100;strokeWidth=0;image=https://images.lucid.app/images/b0815320-e3a2-4cb4-9a39-efd1e4223e17/content;imageAspect=0;" vertex="1" parent="59JFHNOHoAPkBTodmzGd-44">
            <mxGeometry width="116" height="116" as="geometry" />
          </mxCell>
        </UserObject>
        <mxCell id="59JFHNOHoAPkBTodmzGd-46" value="" style="group;dropTarget=0;" vertex="1" parent="59JFHNOHoAPkBTodmzGd-35">
          <mxGeometry x="180" y="100" width="124" height="124" as="geometry" />
        </mxCell>
        <UserObject label="" lucidchartObjectId="oBf9S~XeOAca" id="59JFHNOHoAPkBTodmzGd-47">
          <mxCell style="html=1;overflow=block;blockSpacing=1;whiteSpace=wrap;shape=image;whiteSpace=wrap;fontSize=13;spacing=3.8;strokeColor=none;strokeOpacity=100;strokeWidth=0;image=https://images.lucid.app/images/b0815320-e3a2-4cb4-9a39-efd1e4223e17/content;imageAspect=0;" vertex="1" parent="59JFHNOHoAPkBTodmzGd-46">
            <mxGeometry width="124" height="124" as="geometry" />
          </mxCell>
        </UserObject>
        <UserObject label="" lucidchartObjectId="oBf93Febwgkm" id="59JFHNOHoAPkBTodmzGd-48">
          <mxCell style="html=1;overflow=block;blockSpacing=1;whiteSpace=wrap;shape=mxgraph.aws4.resourceIcon;resIcon=mxgraph.aws4.database;labelPosition=center;verticalLabelPosition=bottom;align=center;verticalAlign=top;whiteSpace=wrap;fontSize=13;spacing=0;strokeColor=#ffffff;fillOpacity=100;rounded=1;absoluteArcSize=1;arcSize=9;shadow=1;fillColor=#999999;strokeWidth=2.3;" vertex="1" parent="59JFHNOHoAPkBTodmzGd-46">
            <mxGeometry x="67" y="73" width="35" height="35" as="geometry" />
          </mxCell>
        </UserObject>
        <mxCell id="59JFHNOHoAPkBTodmzGd-49" value="" style="group;dropTarget=0;" vertex="1" parent="59JFHNOHoAPkBTodmzGd-35">
          <mxGeometry x="63" y="321" width="124" height="124" as="geometry" />
        </mxCell>
        <UserObject label="" lucidchartObjectId="oBf9647hwRmi" id="59JFHNOHoAPkBTodmzGd-50">
          <mxCell style="html=1;overflow=block;blockSpacing=1;whiteSpace=wrap;shape=image;whiteSpace=wrap;fontSize=13;spacing=3.8;strokeColor=none;strokeOpacity=100;strokeWidth=0;image=https://images.lucid.app/images/b0815320-e3a2-4cb4-9a39-efd1e4223e17/content;imageAspect=0;" vertex="1" parent="59JFHNOHoAPkBTodmzGd-49">
            <mxGeometry width="124" height="124" as="geometry" />
          </mxCell>
        </UserObject>
        <UserObject label="" lucidchartObjectId="oBf9~_7gNBWH" id="59JFHNOHoAPkBTodmzGd-51">
          <mxCell style="html=1;overflow=block;blockSpacing=1;whiteSpace=wrap;shape=image;whiteSpace=wrap;fontSize=13;spacing=3.8;strokeColor=none;strokeOpacity=100;strokeWidth=0;image=https://images.lucid.app/images/0b386ae8-6102-4d7a-93fb-37ad0b9b30d9/content;imageAspect=0;" vertex="1" parent="59JFHNOHoAPkBTodmzGd-49">
            <mxGeometry x="66" y="73" width="39" height="39" as="geometry" />
          </mxCell>
        </UserObject>
        <mxCell id="59JFHNOHoAPkBTodmzGd-56" value="" style="group;dropTarget=0;" vertex="1" parent="59JFHNOHoAPkBTodmzGd-35">
          <mxGeometry x="35" y="248" width="495" height="235" as="geometry" />
        </mxCell>
        <UserObject label="Realtime DB" lucidchartObjectId="oBf9D~JUU3uB" id="59JFHNOHoAPkBTodmzGd-57">
          <mxCell style="html=1;overflow=block;blockSpacing=1;whiteSpace=wrap;;whiteSpace=wrap;fontSize=16.7;fontColor=#333333;spacing=3.8;strokeOpacity=0;fillOpacity=0;rounded=1;absoluteArcSize=1;arcSize=9;fillColor=#ffffff;strokeWidth=2.3;" vertex="1" parent="59JFHNOHoAPkBTodmzGd-56">
            <mxGeometry x="165" width="180" height="45" as="geometry" />
          </mxCell>
        </UserObject>
        <UserObject label="Cloud Functions" lucidchartObjectId="oBf9vwRfAMUa" id="59JFHNOHoAPkBTodmzGd-58">
          <mxCell style="html=1;overflow=block;blockSpacing=1;whiteSpace=wrap;;whiteSpace=wrap;fontSize=16.7;fontColor=#333333;spacing=3.8;strokeOpacity=0;fillOpacity=0;rounded=1;absoluteArcSize=1;arcSize=9;fillColor=#ffffff;strokeWidth=2.3;" vertex="1" parent="59JFHNOHoAPkBTodmzGd-56">
            <mxGeometry x="315" width="180" height="45" as="geometry" />
          </mxCell>
        </UserObject>
        <UserObject label="Big Query" lucidchartObjectId="oBf9L-~5HKcV" id="59JFHNOHoAPkBTodmzGd-59">
          <mxCell style="html=1;overflow=block;blockSpacing=1;whiteSpace=wrap;;whiteSpace=wrap;fontSize=16.7;fontColor=#333333;spacing=3.8;strokeOpacity=0;fillOpacity=0;rounded=1;absoluteArcSize=1;arcSize=9;fillColor=#ffffff;strokeWidth=2.3;" vertex="1" parent="59JFHNOHoAPkBTodmzGd-56">
            <mxGeometry x="3" width="180" height="45" as="geometry" />
          </mxCell>
        </UserObject>
        <UserObject label="Analytics" lucidchartObjectId="oBf9ivPuPPsI" id="59JFHNOHoAPkBTodmzGd-60">
          <mxCell style="html=1;overflow=block;blockSpacing=1;whiteSpace=wrap;;whiteSpace=wrap;fontSize=16.7;fontColor=#333333;spacing=3.8;strokeOpacity=0;fillOpacity=0;rounded=1;absoluteArcSize=1;arcSize=9;fillColor=#ffffff;strokeWidth=2.3;" vertex="1" parent="59JFHNOHoAPkBTodmzGd-56">
            <mxGeometry y="190" width="180" height="45" as="geometry" />
          </mxCell>
        </UserObject>
        <UserObject label="Authentication" lucidchartObjectId="oBf9pzfSf2t4" id="59JFHNOHoAPkBTodmzGd-61">
          <mxCell style="html=1;overflow=block;blockSpacing=1;whiteSpace=wrap;;whiteSpace=wrap;fontSize=16.7;fontColor=#333333;spacing=3.8;strokeOpacity=0;fillOpacity=0;rounded=1;absoluteArcSize=1;arcSize=9;fillColor=#ffffff;strokeWidth=2.3;" vertex="1" parent="59JFHNOHoAPkBTodmzGd-56">
            <mxGeometry x="305" y="190" width="180" height="45" as="geometry" />
          </mxCell>
        </UserObject>
        <UserObject label="Cloud API" lucidchartObjectId="oBf9eeJXy50v" id="59JFHNOHoAPkBTodmzGd-62">
          <mxCell style="html=1;overflow=block;blockSpacing=1;whiteSpace=wrap;;whiteSpace=wrap;fontSize=16.7;fontColor=#333333;spacing=3.8;strokeOpacity=0;fillOpacity=0;rounded=1;absoluteArcSize=1;arcSize=9;fillColor=#ffffff;strokeWidth=2.3;" vertex="1" parent="59JFHNOHoAPkBTodmzGd-56">
            <mxGeometry x="150" y="190" width="180" height="45" as="geometry" />
          </mxCell>
        </UserObject>
        <mxCell id="59JFHNOHoAPkBTodmzGd-66" value="" style="group;dropTarget=0;" vertex="1" parent="59JFHNOHoAPkBTodmzGd-35">
          <mxGeometry x="425" y="210" width="39" height="35" as="geometry" />
        </mxCell>
        <UserObject label="" lucidchartObjectId="JHf9mnGnTy.Q" id="59JFHNOHoAPkBTodmzGd-67">
          <mxCell style="html=1;overflow=block;blockSpacing=1;whiteSpace=wrap;html=1;verticalLabelPosition=bottom;verticalAlign=top;strokeColor=none;shape=mxgraph.gcp2.cloud_functions;whiteSpace=wrap;fontSize=13;spacing=0;strokeOpacity=100;fillOpacity=100;fillColor=#4285f4;strokeWidth=2.3;" vertex="1" parent="59JFHNOHoAPkBTodmzGd-66">
            <mxGeometry width="39" height="35" as="geometry" />
          </mxCell>
        </UserObject>
        <UserObject label="" lucidchartObjectId="oBf9E8U_oqQs" id="59JFHNOHoAPkBTodmzGd-53">
          <mxCell style="html=1;overflow=block;blockSpacing=1;whiteSpace=wrap;html=1;verticalLabelPosition=bottom;verticalAlign=top;strokeColor=none;shape=mxgraph.gcp2.cloud_apis;whiteSpace=wrap;fontSize=13;spacing=0;strokeOpacity=100;fillOpacity=100;fillColor=#4285f4;strokeWidth=2.3;" vertex="1" parent="59JFHNOHoAPkBTodmzGd-35">
            <mxGeometry x="234.5" y="350.01883561643837" width="96" height="83.98116438356165" as="geometry" />
          </mxCell>
        </UserObject>
        <UserObject label="" lucidchartObjectId="oBf9iyy5G~Sc" id="59JFHNOHoAPkBTodmzGd-54">
          <mxCell style="html=1;overflow=block;blockSpacing=1;whiteSpace=wrap;html=1;verticalLabelPosition=bottom;verticalAlign=top;strokeColor=none;shape=mxgraph.gcp2.bigquery;whiteSpace=wrap;fontSize=13;spacing=0;strokeOpacity=100;fillOpacity=100;fillColor=#4285f4;strokeWidth=2.3;" vertex="1" parent="59JFHNOHoAPkBTodmzGd-35">
            <mxGeometry x="63" y="140.01643835616437" width="96" height="83.98116438356165" as="geometry" />
          </mxCell>
        </UserObject>
        <mxCell id="59JFHNOHoAPkBTodmzGd-52" value="" style="group;dropTarget=0;" vertex="1" parent="59JFHNOHoAPkBTodmzGd-35">
          <mxGeometry x="20" y="120" width="414" height="288.5" as="geometry" />
        </mxCell>
        <UserObject label="" lucidchartObjectId="oBf9uTC3t9uF" id="59JFHNOHoAPkBTodmzGd-55">
          <mxCell style="html=1;overflow=block;blockSpacing=1;whiteSpace=wrap;shape=image;whiteSpace=wrap;fontSize=13;spacing=3.8;strokeColor=none;strokeOpacity=100;strokeWidth=0;image=https://images.lucid.app/images/b0815320-e3a2-4cb4-9a39-efd1e4223e17/content;imageAspect=0;" vertex="1" parent="59JFHNOHoAPkBTodmzGd-52">
            <mxGeometry x="285" width="129" height="127.45376712328768" as="geometry" />
          </mxCell>
        </UserObject>
        <mxCell id="59JFHNOHoAPkBTodmzGd-39" style="edgeStyle=orthogonalEdgeStyle;rounded=0;orthogonalLoop=1;jettySize=auto;html=1;" edge="1" parent="1" source="59JFHNOHoAPkBTodmzGd-37" target="59JFHNOHoAPkBTodmzGd-38">
          <mxGeometry relative="1" as="geometry" />
        </mxCell>
        <mxCell id="59JFHNOHoAPkBTodmzGd-37" value="END USER" style="html=1;verticalLabelPosition=bottom;align=center;labelBackgroundColor=#ffffff;verticalAlign=top;strokeWidth=2;strokeColor=#0080F0;shadow=0;dashed=0;shape=mxgraph.ios7.icons.user;fillColor=none;gradientColor=none;" vertex="1" parent="1">
          <mxGeometry x="-760" y="294.51" width="90" height="77.76" as="geometry" />
        </mxCell>
        <mxCell id="59JFHNOHoAPkBTodmzGd-40" style="edgeStyle=orthogonalEdgeStyle;rounded=0;orthogonalLoop=1;jettySize=auto;html=1;entryX=-0.005;entryY=0.448;entryDx=0;entryDy=0;entryPerimeter=0;" edge="1" parent="1" source="59JFHNOHoAPkBTodmzGd-38" target="59JFHNOHoAPkBTodmzGd-35">
          <mxGeometry relative="1" as="geometry" />
        </mxCell>
        <mxCell id="59JFHNOHoAPkBTodmzGd-38" value="DNS URL" style="sketch=0;outlineConnect=0;fontColor=#232F3E;gradientColor=none;fillColor=#A166FF;strokeColor=none;dashed=0;verticalLabelPosition=bottom;verticalAlign=top;align=center;html=1;fontSize=12;fontStyle=0;aspect=fixed;pointerEvents=1;shape=mxgraph.aws4.route_53_resolver_dns_firewall;" vertex="1" parent="1">
          <mxGeometry x="-570" y="294.51" width="78" height="78" as="geometry" />
        </mxCell>
      </root>
    </mxGraphModel>
  </diagram>
</mxfile>
